<?xml version="1.0" encoding="UTF-8"?>
<svg version="1.1" xmlns="http://www.w3.org/2000/svg" width="2560" height="1707">
<path d="M0 0 C844.8 0 1689.6 0 2560 0 C2560 563.31 2560 1126.62 2560 1707 C1715.2 1707 870.4 1707 0 1707 C0 1143.69 0 580.38 0 0 Z " fill="#FEFEFE" transform="translate(0,0)"/>
<path d="M0 0 C1.88162842 0.32339355 1.88162842 0.32339355 3.80126953 0.65332031 C28.4662715 4.92127599 52.12345781 10.38426736 76 18 C77.01545898 18.31984863 78.03091797 18.63969727 79.07714844 18.96923828 C105.74590568 27.39670552 131.03721735 38.48823109 156 51 C156.90717773 51.4522998 157.81435547 51.90459961 158.74902344 52.37060547 C185.11997942 65.59740106 209.64934948 82.03372037 233 100 C233.89428711 100.68376709 233.89428711 100.68376709 234.80664062 101.38134766 C244.18564141 108.56553817 253.17061375 116.15220199 262 124 C262.98742188 124.87398437 263.97484375 125.74796875 264.9921875 126.6484375 C272.68712246 133.60857761 280.02924931 140.92555216 287.375 148.25 C287.89746307 148.76978424 288.41992615 149.28956848 288.95822144 149.82510376 C294.85879349 155.70272135 300.60835229 161.64562079 306 168 C306.94896878 169.08339269 307.89943776 170.16547357 308.8515625 171.24609375 C316.65230766 180.1890561 323.9211702 189.47801561 331 199 C331.80655029 200.0830542 331.80655029 200.0830542 332.62939453 201.18798828 C375.20137421 258.60321906 405.57010047 324.17837901 421 394 C421.25378418 395.11246094 421.50756836 396.22492188 421.76904297 397.37109375 C426.18529707 416.79496459 429.06761929 436.18987279 431 456 C431.08687073 456.87133575 431.17374146 457.74267151 431.26324463 458.64041138 C432.78743072 474.21138475 433.4061333 489.66988955 433.375 505.3125 C433.37318726 507.02286942 433.37318726 507.02286942 433.37133789 508.76779175 C433.24195766 554.2784713 427.72334355 600.19570619 415 644 C414.75491699 644.84836426 414.50983398 645.69672852 414.25732422 646.57080078 C406.26852829 673.74500529 396.11531456 700.41205349 384 726 C383.24082275 727.6089917 383.24082275 727.6089917 382.46630859 729.25048828 C371.20952153 752.90358579 358.01623076 775.53194751 343 797 C342.48373047 797.74008301 341.96746094 798.48016602 341.43554688 799.24267578 C334.17791634 809.59339733 326.51310744 819.53038027 318.43994141 829.25585938 C316.41245602 831.71166737 314.42994304 834.20322868 312.4375 836.6875 C308.13008388 841.95124153 303.53737231 846.92076304 298.89453125 851.88671875 C296.44445538 854.50889751 294.0592988 857.18160136 291.6875 859.875 C283.64066895 868.84692295 275.08683901 877.62383428 265.875 885.40625 C263.59616622 887.34325871 261.39675343 889.35905625 259.1875 891.375 C253.93579043 896.10233313 248.52732593 900.5999471 243 905 C242.04891357 905.75990234 242.04891357 905.75990234 241.07861328 906.53515625 C174.69396434 959.40539678 95.81364885 995.95691296 12.11938477 1010.40917969 C9.61950858 1010.88266332 7.16432735 1011.42401817 4.68823242 1012.00268555 C0.1589166 1013.01970652 -4.33671506 1013.58887982 -8.953125 1014.03515625 C-9.77520447 1014.11873886 -10.59728394 1014.20232147 -11.4442749 1014.28843689 C-13.17174568 1014.4631062 -14.89947449 1014.63524082 -16.62744141 1014.80493164 C-19.23006122 1015.06054176 -21.8318541 1015.32348619 -24.43359375 1015.58789062 C-26.12756089 1015.75824337 -27.8215701 1015.92817846 -29.515625 1016.09765625 C-30.65224579 1016.21174583 -30.65224579 1016.21174583 -31.81182861 1016.32814026 C-42.97268702 1017.42154508 -54.05980016 1018.16424245 -65.27734375 1018.23828125 C-67.12735489 1018.25283607 -67.12735489 1018.25283607 -69.01473999 1018.26768494 C-72.98900113 1018.29251374 -76.96317669 1018.30585954 -80.9375 1018.3125 C-81.61495144 1018.31394516 -82.29240288 1018.31539032 -82.99038315 1018.31687927 C-105.88641575 1018.3563201 -128.33076128 1017.31301292 -151 1014 C-152.07540039 1013.85578613 -153.15080078 1013.71157227 -154.25878906 1013.56298828 C-184.3283406 1009.524014 -214.3042854 1001.72981364 -243 992 C-244.0734668 991.63938477 -245.14693359 991.27876953 -246.25292969 990.90722656 C-262.24131788 985.49015622 -277.66300258 979.03772336 -293 972 C-293.91233398 971.58637207 -294.82466797 971.17274414 -295.76464844 970.74658203 C-309.97385462 964.28761528 -323.53057239 956.87559267 -337 949 C-337.89170898 948.48115234 -338.78341797 947.96230469 -339.70214844 947.42773438 C-351.14246008 940.75103785 -362.24070398 933.72747559 -373 926 C-373.7513623 925.46117187 -374.50272461 924.92234375 -375.27685547 924.3671875 C-389.34724298 914.23303789 -403.06722011 903.69270693 -415.85546875 891.96484375 C-417.81378128 890.17061569 -419.80226137 888.42304764 -421.8125 886.6875 C-434.21852582 875.85091118 -446.59293383 864.58637793 -457.26953125 852.01171875 C-459.41533274 849.51716397 -461.64585677 847.10781018 -463.875 844.6875 C-468.79242746 839.28275991 -473.45356619 833.71807326 -478 828 C-478.4945166 827.38334473 -478.9890332 826.76668945 -479.49853516 826.13134766 C-503.40157997 796.25796265 -523.01050135 764.18952392 -540 730 C-540.44279297 729.12085938 -540.88558594 728.24171875 -541.34179688 727.3359375 C-548.5574719 712.97475609 -554.39763286 698.05213722 -560 683 C-560.23372314 682.37333435 -560.46744629 681.7466687 -560.70825195 681.10101318 C-574.46922897 644.07714962 -582.62958482 606.08434015 -588 567 C-588.17426514 565.75355713 -588.17426514 565.75355713 -588.35205078 564.48193359 C-593.76955784 524.89377979 -592.74428181 482.46300023 -587.38085938 442.94238281 C-587.03005852 440.23222137 -586.73008174 437.52323652 -586.453125 434.8046875 C-583.47494397 406.91903829 -576.7100081 378.62707544 -568 352 C-567.67596191 350.99646484 -567.35192383 349.99292969 -567.01806641 348.95898438 C-545.73994794 283.62133848 -511.62119938 224.31274798 -467.125 172.0625 C-466.67954834 171.53760986 -466.23409668 171.01271973 -465.77514648 170.47192383 C-457.37273548 160.66984766 -448.50064553 151.33250347 -439.35571289 142.2253418 C-437.79910611 140.67415273 -436.24799829 139.11760608 -434.69726562 137.56054688 C-429.3037312 132.16310498 -423.82134787 126.93827559 -418 122 C-416.91659746 121.05104245 -415.83451666 120.10057332 -414.75390625 119.1484375 C-406.47554653 111.92836887 -397.89577803 105.18742794 -389.11279297 98.59375 C-387.08670021 97.06540085 -385.07486551 95.52016736 -383.06640625 93.96875 C-372.75645306 86.04830605 -362.00769509 78.91197026 -351 72 C-350.34177246 71.5865332 -349.68354492 71.17306641 -349.00537109 70.74707031 C-337.62911813 63.65467343 -325.83653673 57.28403774 -314 51 C-313.09733398 50.51660156 -312.19466797 50.03320312 -311.26464844 49.53515625 C-285.18383131 35.66298108 -257.25195203 24.5759255 -229 16 C-227.70497559 15.60143799 -227.70497559 15.60143799 -226.38378906 15.19482422 C-154.24378072 -6.83815161 -74.44887387 -12.85501029 0 0 Z " fill="#BC002D" transform="translate(1359,347)"/>
</svg>
